<?xml version="1.0" encoding="utf-8"?>
<svg viewBox="3 3 58.42 18" fill="none" xmlns="http://www.w3.org/2000/svg">
  <!-- Textbox -->
  <path d="M18.25 3C19.7688 3 21 4.23122 21 5.75V18.25C21 19.7688 19.7688 21 18.25 21H5.75C4.23122 21 3 19.7688 3 18.25V5.75C3 4.23122 4.23122 3 5.75 3H18.25ZM18.25 4.5H5.75C5.05964 4.5 4.5 5.05964 4.5 5.75V18.25C4.5 18.9404 5.05964 19.5 5.75 19.5H18.25C18.9404 19.5 19.5 18.9404 19.5 18.25V5.75C19.5 5.05964 18.9404 4.5 18.25 4.5ZM14.25 11.5H6.75L6.64823 11.5068C6.28215 11.5565 6 11.8703 6 12.25C6 12.6642 6.33579 13 6.75 13H14.25L14.3518 12.9932C14.7178 12.9435 15 12.6297 15 12.25C15 11.8358 14.6642 11.5 14.25 11.5ZM6.75 15.5H17.25C17.6642 15.5 18 15.8358 18 16.25C18 16.6297 17.7178 16.9435 17.3518 16.9932L17.25 17H6.75C6.33579 17 6 16.6642 6 16.25C6 15.8703 6.28215 15.5565 6.64823 15.5068L6.75 15.5ZM17.25 7.5H6.75L6.64823 7.50685C6.28215 7.55651 6 7.8703 6 8.25C6 8.66421 6.33579 9 6.75 9H17.25L17.3518 8.99315C17.7178 8.94349 18 8.6297 18 8.25C18 7.83579 17.6642 7.5 17.25 7.5Z" fill="#212121"/>

  <!-- Right Arrow -->
  <path d="M22 12H34M34 12L29 7M34 12L29 17" stroke="#000000" stroke-width="2" stroke-linecap="round" stroke-linejoin="round" transform="translate(3, 0)"/>

<!-- Old xml -->
<!-- <path -->
<!-- d="M12.89,3l2,.4L11.11,21l-2-.4L12.89,3m6.7,9L16,8.41V5.58L22.42,12,16,18.41V15.58L19.59,12m-18,0L8,5.58V8.41L4.41,12,8,15.58v2.83Z"  -->
<!-- fill="#000000"  -->
<!-- transform="translate(39, 0)"/> -->

  <!-- XML Icon -->
<g
     fill="#000000" stroke="#000000" stroke-width="0.5">

  <path
        d="M15.5,24c-0.256,0-0.512-0.098-0.707-0.293c-0.391-0.391-0.391-1.023,0-1.414l6-6
           c0.391-0.391,1.023-0.391,1.414,0s0.391,1.023,0,1.414l-6,6C16.012,23.902,15.756,24,15.5,24z"
       >
  </path>

  <path
        d="M21.5,30c-0.256,0-0.512-0.098-0.707-0.293l-6-6c-0.391-0.391-0.391-1.023,0-1.414
           s1.023-0.391,1.414,0l6,6c0.391,0.391,0.391,1.023,0,1.414C22.012,29.902,21.756,30,21.5,30z"
       >
  </path>

  <path
        d="M33.5,30c-0.256,0-0.512-0.098-0.707-0.293c-0.391-0.391-0.391-1.023,0-1.414l6-6
           c0.391-0.391,1.023-0.391,1.414,0s0.391,1.023,0,1.414l-6,6C34.012,29.902,33.756,30,33.5,30z"
    >
  </path>

  <path
        d="M39.5,24c-0.256,0-0.512-0.098-0.707-0.293l-6-6c-0.391-0.391-0.391-1.023,0-1.414
           s1.023-0.391,1.414,0l6,6c0.391,0.391,0.391,1.023,0,1.414C40.012,23.902,39.756,24,39.5,24z"
      >
  </path>

  <path
        d="M24.5,32c-0.11,0-0.223-0.019-0.333-0.058c-0.521-0.184-0.794-0.755-0.61-1.276l6-17
           c0.185-0.521,0.753-0.795,1.276-0.61c0.521,0.184,0.794,0.755,0.61,1.276l-6,17
           C25.298,31.744,24.912,32,24.5,32z"
      >
  </path>

</g>

</svg>
