<?xml version="1.0" encoding="utf-8"?>
<svg version="1.1" xmlns="http://www.w3.org/2000/svg" width="800px" height="800px"
     viewBox="13.5 12 28 21" fill="#000000" stroke="#000000" stroke-width="0.5">

  <path
    d="M15.5,24c-0.256,0-0.512-0.098-0.707-0.293c-0.391-0.391-0.391-1.023,0-1.414l6-6
       c0.391-0.391,1.023-0.391,1.414,0s0.391,1.023,0,1.414l-6,6C16.012,23.902,15.756,24,15.5,24z"
  >
  </path>

  <path
    d="M21.5,30c-0.256,0-0.512-0.098-0.707-0.293l-6-6c-0.391-0.391-0.391-1.023,0-1.414
       s1.023-0.391,1.414,0l6,6c0.391,0.391,0.391,1.023,0,1.414C22.012,29.902,21.756,30,21.5,30z"
  >
  </path>

  <path
    d="M33.5,30c-0.256,0-0.512-0.098-0.707-0.293c-0.391-0.391-0.391-1.023,0-1.414l6-6
       c0.391-0.391,1.023-0.391,1.414,0s0.391,1.023,0,1.414l-6,6C34.012,29.902,33.756,30,33.5,30z"
  >
  </path>

  <path
    d="M39.5,24c-0.256,0-0.512-0.098-0.707-0.293l-6-6c-0.391-0.391-0.391-1.023,0-1.414
       s1.023-0.391,1.414,0l6,6c0.391,0.391,0.391,1.023,0,1.414C40.012,23.902,39.756,24,39.5,24z"
  >
  </path>

  <path
    d="M24.5,32c-0.11,0-0.223-0.019-0.333-0.058c-0.521-0.184-0.794-0.755-0.61-1.276l6-17
       c0.185-0.521,0.753-0.795,1.276-0.61c0.521,0.184,0.794,0.755,0.61,1.276l-6,17
       C25.298,31.744,24.912,32,24.5,32z"
  >
  </path>

</svg>
